PathFileType	4	(X/Y/Z)	./resultDataOpenSim/trcMotMarkerGrf/sub09/qtm-04-02.trc
DataRate	CameraRate	NumFrames	NumMarkers	Units	OrigDataRate	OrigDataStartFrame	OrigNumFrames
250.000000	250.000000	14	24	m	250.000000	309	493
Frame#	Time	L.Toe.Tip			R.Toe.Tip			L.Ankle.Lat			R.Ankle.Lat			L.Ankle.Med			R.Ankle.Med			L.Heel			R.Heel			L.Knee.Lat			R.Knee.Lat			L.Knee.Med			R.Knee.Med			L.Thigh.Upper			R.Thigh.Upper			L.ASIS			R.ASIS			V.Sacral			L.Acromium			R.Acromium			C7			L.Elbow			R.Elbow			L.Wrist.Lat			R.Wrist.Lat
		X1	Y1	Z1	X2	Y2	Z2	X3	Y3	Z3	X4	Y4	Z4	X5	Y5	Z5	X6	Y6	Z6	X7	Y7	Z7	X8	Y8	Z8	X9	Y9	Z9	X10	Y10	Z10	X11	Y11	Z11	X12	Y12	Z12	X13	Y13	Z13	X14	Y14	Z14	X15	Y15	Z15	X16	Y16	Z16	X17	Y17	Z17	X18	Y18	Z18	X19	Y19	Z19	X20	Y20	Z20	X21	Y21	Z21	X22	Y22	Z22	X23	Y23	Z23	X24	Y24	Z24

309	1.232	0.20220945	-0.02135537	0.0030827936	1.0740424	0.041073786	0.10048401	0.14411622	0.12223117	-0.061514738	0.92569036	0.052733375	0.13407259	0.17865162	0.11840563	0.029905819	0.93163271	0.09174216	0.04283944	0.082236102	0.1517459	-0.014709665	0.85669446	0.031999064	0.085629679	0.44777687	0.41648578	-0.098497985	0.91472295	0.50512636	0.19448047	0.45916169	0.39818778	0.027149498	0.90444428	0.49284085	0.06860557	0.59674507	0.79555225	-0.11242728	0.6681139	0.82477506	0.25594068	0.71028485	0.86670099	-0.069332603	0.73497391	0.89848505	0.16875521	0.5616172	0.94823064	0.062654543	0.7600674	1.3365622	-0.093214067	0.71669741	1.3374106	0.23340514	0.67285302	1.3909035	0.062204193	0.6813111	0.96330083	-0.16097875	0.53071442	1.0284338	0.28857413	0.94743268	0.8962465	-0.14419222	0.59048352	0.76746184	0.35151321
310	1.236	0.20450697	-0.019211423	0.0026000359	1.0741964	0.040956333	0.10038863	0.15059351	0.12660352	-0.061529918	0.92598651	0.052591597	0.13389668	0.18528986	0.12184978	0.029748618	0.93190745	0.091742145	0.042789525	0.089712163	0.15775147	-0.014486506	0.85674665	0.032011295	0.085619501	0.45900409	0.41557954	-0.099209768	0.91952397	0.50500903	0.19451159	0.47050311	0.39708618	0.025905853	0.90913919	0.49289471	0.068714211	0.60438729	0.79595402	-0.11166888	0.67479075	0.82588801	0.25665076	0.71742153	0.8675531	-0.06813628	0.74127504	0.89953824	0.16961741	0.56834751	0.94950131	0.063403246	0.76709768	1.3375745	-0.092939731	0.72349221	1.3382839	0.23368704	0.67976494	1.391948	0.062485463	0.68731022	0.96469727	-0.16058175	0.5384156	1.028456	0.2886464	0.95258912	0.89447306	-0.14401813	0.59985541	0.76770358	0.35137259
311	1.24	0.20699991	-0.017047204	0.0021043699	1.0743062	0.040860039	0.10027	0.15746172	0.13105395	-0.061409963	0.92621759	0.052467459	0.13376416	0.19221384	0.12541345	0.029771601	0.93208231	0.091782052	0.042808607	0.097530285	0.1638813	-0.01413517	0.85676727	0.031997562	0.085644283	0.47042687	0.41465661	-0.099841448	0.92404781	0.50489449	0.19453004	0.48216203	0.39583713	0.024961321	0.91343266	0.49295595	0.068898487	0.61189192	0.79654784	-0.11069826	0.68128356	0.82698534	0.25736679	0.72441613	0.86851282	-0.06699294	0.74749793	0.90064023	0.17053451	0.57491392	0.9508515	0.064372026	0.77405609	1.3386832	-0.0926677	0.73027216	1.3392602	0.23394929	0.6865877	1.3930687	0.062731591	0.69329775	0.96616664	-0.16005681	0.54614031	1.0286339	0.2887634	0.95762356	0.8926985	-0.14386018	0.60927419	0.76805412	0.3511911
312	1.244	0.20965043	-0.014837537	0.0015880717	1.074367	0.040775547	0.10023619	0.16466843	0.13558469	-0.061172631	0.92636208	0.052366691	0.13367983	0.19942129	0.12907339	0.029961297	0.93217841	0.091856789	0.042882427	0.10567812	0.17013908	-0.013654131	0.85675928	0.03196694	0.085685659	0.48203148	0.41371879	-0.10037119	0.92831626	0.50481009	0.1945767	0.49400114	0.39434872	0.024397979	0.91733293	0.49302135	0.069152423	0.61926222	0.79723114	-0.10968604	0.68757277	0.82809879	0.25806798	0.73114507	0.86947429	-0.066046901	0.75364446	0.90181144	0.17147945	0.58141347	0.95226382	0.065353301	0.78094948	1.3398796	-0.092403354	0.73701641	1.340341	0.23418951	0.69331763	1.3942685	0.06294668	0.69926264	0.96770983	-0.15944174	0.55384762	1.0289532	0.28890822	0.96254621	0.8909348	-0.14371084	0.61871685	0.76851623	0.35095639
313	1.248	0.2124228	-0.012477932	0.0010439185	1.074375	0.040704604	0.10029114	0.17215372	0.14021561	-0.060837005	0.92641885	0.052301713	0.13364383	0.2069066	0.13281614	0.030299971	0.93223492	0.091952065	0.042988328	0.11414506	0.17653403	-0.013053234	0.85672194	0.031933964	0.085735072	0.4938142	0.41276382	-0.10079596	0.93235561	0.50476479	0.19467056	0.50592419	0.39286393	0.023983956	0.92088928	0.49309646	0.069466811	0.62651238	0.79795078	-0.10880335	0.69365605	0.82925881	0.25874892	0.73752222	0.87037726	-0.065368193	0.75971036	0.90305947	0.17242319	0.58793199	0.95373358	0.066167586	0.78777708	1.3411539	-0.092153105	0.74371801	1.3415266	0.23440901	0.69996827	1.3955501	0.063140572	0.70518291	0.96934063	-0.15880686	0.56146438	1.0293696	0.28903893	0.96736593	0.8891872	-0.14356753	0.62818074	0.76909847	0.35066363
314	1.252	0.21530429	-0.0098548238	0.00046081358	1.0743347	0.040652201	0.10036622	0.17992309	0.14495222	-0.060447657	0.92640872	0.052284469	0.13365294	0.21465137	0.13664521	0.030769783	0.93227896	0.092053662	0.043105842	0.12293473	0.18307223	-0.012349939	0.85665376	0.031910352	0.085794346	0.50577326	0.41179875	-0.1011302	0.93620322	0.50474821	0.19483124	0.51790386	0.39170425	0.023493986	0.92418288	0.49318859	0.069825939	0.63365122	0.79871077	-0.10811739	0.69954546	0.83048735	0.25941529	0.74353406	0.87126468	-0.064877287	0.76569895	0.90438489	0.17334469	0.59449812	0.95526823	0.0668027	0.79453177	1.3424995	-0.091916409	0.75038913	1.3428176	0.23460993	0.70655633	1.3969104	0.063324731	0.71103944	0.97106693	-0.15820958	0.56892555	1.0298384	0.28911005	0.97207891	0.88745345	-0.14343688	0.63767363	0.76980585	0.35031291
315	1.256	0.21831053	-0.0068710888	-0.00016602284	1.074254	0.040617899	0.10041925	0.18806382	0.14978346	-0.060086318	0.92636192	0.052309084	0.13370048	0.22262875	0.14057865	0.031342264	0.93232151	0.09215049	0.043219359	0.13206344	0.1897582	-0.011550589	0.85655733	0.031899597	0.085861501	0.51791316	0.41084931	-0.10139636	0.93989823	0.50475264	0.19508279	0.52992474	0.39096901	0.022977007	0.92730447	0.49329421	0.070212639	0.64066648	0.79953212	-0.10760226	0.70525523	0.8318014	0.26007394	0.74921684	0.87224873	-0.064396615	0.771626	0.90579028	0.17423271	0.6010639	0.95686779	0.067306271	0.80120384	1.3439156	-0.091693306	0.75703958	1.3442137	0.23479251	0.71308747	1.3983404	0.063503674	0.71681965	0.97289051	-0.15768997	0.57625573	1.0303682	0.28911864	0.97667365	0.88573124	-0.14332624	0.64719287	0.77063548	0.34990515
316	1.26	0.22147931	-0.0034558524	-0.00082219424	1.0741419	0.040596133	0.10045963	0.19660766	0.15472563	-0.059803399	0.92629989	0.052349103	0.13377288	0.23081711	0.14464445	0.031978711	0.9323687	0.092234512	0.043318307	0.14154087	0.19659134	-0.010649055	0.85644221	0.031897983	0.08592384	0.53022579	0.40994858	-0.10160239	0.94344871	0.50475464	0.19541738	0.54189059	0.39053499	0.02265616	0.9303286	0.49339242	0.070614747	0.6475238	0.80042445	-0.10718178	0.71079339	0.83321706	0.2607254	0.75472973	0.87344473	-0.063760544	0.77750994	0.90728262	0.17507967	0.60751593	0.95852896	0.067630283	0.80778732	1.3453995	-0.091489008	0.76366079	1.3457118	0.23495639	0.71955134	1.3998369	0.06367228	0.72251873	0.97481165	-0.15727432	0.58355526	1.0310067	0.2891148	0.98114673	0.88402391	-0.14323617	0.65672281	0.7715825	0.34944098
317	1.264	0.22486849	0.00042881678	-0.0014760605	1.0740115	0.040581587	0.10050275	0.20542031	0.15984553	-0.059534499	0.92622681	0.052378993	0.13385023	0.23920453	0.14887818	0.032647098	0.93242952	0.092306105	0.043399169	0.1513555	0.20355719	-0.0096476145	0.85632388	0.03190085	0.085966261	0.54266868	0.40912198	-0.10172425	0.94683477	0.50470576	0.19579427	0.55370842	0.39024804	0.022665797	0.93330953	0.49345426	0.071019172	0.65419709	0.80138332	-0.10677998	0.71616564	0.83474647	0.26136051	0.76047435	0.87492036	-0.062924087	0.78335968	0.90886634	0.17587544	0.61372596	0.96026645	0.067638416	0.81428394	1.3469407	-0.091302878	0.77023666	1.3473061	0.23510426	0.72593223	1.4014114	0.063823049	0.72814417	0.97682311	-0.15695776	0.59088801	1.0317803	0.28915072	0.98550552	0.88234361	-0.14315978	0.66625055	0.77264682	0.3489224
318	1.268	0.22855489	0.0047865007	-0.0020960709	1.0738826	0.040571594	0.10054181	0.21431725	0.16520174	-0.059152032	0.92613518	0.052395767	0.13391725	0.24778365	0.15331164	0.033329334	0.9325094	0.092373584	0.043463744	0.16147854	0.21062984	-0.0085729481	0.85621928	0.031907056	0.085979716	0.55518343	0.40838778	-0.10172096	0.95004686	0.50457126	0.19617876	0.56554875	0.39004752	0.022913738	0.93629426	0.49345996	0.071405443	0.66070078	0.8023962	-0.1063672	0.72138493	0.8363928	0.26196138	0.76683283	0.87664688	-0.06200242	0.78917527	0.91053692	0.17660757	0.61965425	0.96210164	0.067300532	0.820694	1.3485296	-0.091128885	0.77676103	1.3489915	0.23524203	0.73222404	1.4030702	0.063951783	0.73371513	0.97890108	-0.15669	0.59823333	1.0326821	0.28923903	0.98975318	0.88070721	-0.14308902	0.67577284	0.77383134	0.34835302
319	1.272	0.23262473	0.0095887106	-0.0026673017	1.0737759	0.040564164	0.10056408	0.22323838	0.17078229	-0.058599124	0.92602174	0.052413549	0.13397395	0.25655156	0.1579548	0.034012294	0.93260333	0.09244283	0.043513972	0.17187279	0.21778075	-0.0074785172	0.85614101	0.031917444	0.085961785	0.56772482	0.40776242	-0.10156652	0.95309911	0.5043695	0.19655936	0.5778676	0.3899613	0.023152328	0.93931692	0.49340928	0.071757846	0.66708365	0.80345133	-0.10595655	0.72647633	0.83814874	0.26250777	0.77364151	0.87849642	-0.061167072	0.79495545	0.91228205	0.17726788	0.62540642	0.9640276	0.066845738	0.82701215	1.3501633	-0.090964333	0.78323651	1.3507636	0.23537314	0.73843602	1.4047967	0.064059351	0.7392498	0.98101182	-0.15640608	0.60554095	1.0336938	0.28936413	0.99387939	0.87912552	-0.14302418	0.6852828	0.77513289	0.34773352
320	1.276	0.23715893	0.014787022	-0.0031933036	1.0737032	0.040555906	0.1005717	0.23225664	0.17652677	-0.057923398	0.92589766	0.052443852	0.13403174	0.26551528	0.16279422	0.034683461	0.93270466	0.092512607	0.043552133	0.18249996	0.22498243	-0.0064372123	0.85609289	0.031931145	0.085916851	0.5802665	0.40726676	-0.10126603	0.95601074	0.50415752	0.19693765	0.59097484	0.39002085	0.023214942	0.94236818	0.49331936	0.072088699	0.67339749	0.80454551	-0.10556915	0.73147534	0.83999712	0.26298699	0.78031521	0.88033809	-0.060507958	0.80069736	0.91408312	0.17785573	0.63110574	0.96600706	0.066585641	0.83323663	1.3518397	-0.090810178	0.7896592	1.3526167	0.23549332	0.74458442	1.4065647	0.064150692	0.74475388	0.98312916	-0.15607128	0.61278205	1.0347984	0.2895085	0.99787186	0.8776008	-0.14297219	0.69476186	0.77653903	0.34705983
321	1.28	0.24221339	0.020332326	-0.0036764726	1.0736629	0.040543665	0.10058036	0.2414873	0.18237071	-0.057206622	0.92577846	0.05248858	0.13410158	0.27468869	0.16781083	0.035337183	0.93281455	0.092579771	0.043584832	0.19333366	0.23220958	-0.0055177028	0.85606907	0.031945717	0.085857079	0.59280131	0.40694039	-0.10085512	0.95879153	0.50394885	0.19731609	0.60456953	0.39018383	0.023225551	0.94538411	0.4932144	0.072438321	0.67967734	0.80568733	-0.10521364	0.73642243	0.8419119	0.26339986	0.78652543	0.88213501	-0.060012908	0.8063937	0.91591591	0.17837504	0.63672479	0.96800662	0.066614434	0.8393709	1.3535558	-0.090671402	0.796016	1.3545411	0.23559437	0.75067756	1.4083622	0.064229805	0.75022213	0.98524419	-0.15568478	0.61995286	1.0359842	0.2896631	1.0017295	0.87613442	-0.14293767	0.70420581	0.77804285	0.34633669
322	1.284	0.24780083	0.026179759	-0.0040889031	1.0736431	0.040527874	0.10060546	0.25100732	0.18825194	-0.056514536	0.92566904	0.052542596	0.13418787	0.28407795	0.17299332	0.035975885	0.932935	0.092643953	0.043620832	0.20436654	0.23944079	-0.0047557182	0.85605712	0.031961692	0.085797091	0.60533822	0.40685158	-0.1003882	0.96143854	0.50364314	0.19768666	0.6178963	0.39039538	0.02348823	0.94828683	0.493114	0.072836395	0.68594422	0.80689582	-0.10488867	0.74135439	0.84386172	0.26375855	0.792369	0.88392838	-0.059627768	0.81203867	0.91775798	0.17883365	0.64215294	0.97000977	0.066808607	0.84541842	1.3553094	-0.090556592	0.80229808	1.3565282	0.23567214	0.75671248	1.4101956	0.064297773	0.75564309	0.98736371	-0.15525917	0.62705992	1.0372425	0.28982544	1.0054605	0.87473024	-0.14292278	0.71366967	0.77966662	0.34560294
